<svg
              width="20"
              height="20"
              fill="none"
              xmlns="http://www.w3.org/2000/svg"
            >
              <g fill="#4CAF50">
                <path
                  d="M16.716 3.266A9.44 9.44 0 0 0 10.013.5a9.488 9.488 0 0 0-6.712 2.763A9.343 9.343 0 0 0 .5 9.935v.004c0 1.522.4 3.057 1.159 4.458L.526 19.546l5.208-1.185a9.533 9.533 0 0 0 4.276 1.016h.004c2.527 0 4.91-.982 6.712-2.764 1.805-1.786 2.8-4.156 2.802-6.671 0-2.498-.998-4.869-2.812-6.676ZM10.013 17.89h-.003a8.035 8.035 0 0 1-3.82-.969l-.245-.133-3.464.787.753-3.418-.145-.25c-.721-1.244-1.103-2.616-1.103-3.97.003-4.382 3.604-7.952 8.027-7.952 2.137.001 4.145.83 5.654 2.333 1.531 1.526 2.375 3.523 2.374 5.623-.002 4.383-3.603 7.948-8.028 7.948Z"
                ></path>
                <path
                  d="M7.425 5.777h-.417a.8.8 0 0 0-.58.271c-.2.217-.762.742-.762 1.81 0 1.066.78 2.098.889 2.242.108.145 1.505 2.405 3.717 3.274 1.838.723 2.212.58 2.611.543.4-.036 1.288-.525 1.47-1.031.18-.506.18-.94.126-1.031-.054-.09-.2-.145-.417-.253-.218-.109-1.284-.642-1.484-.715-.2-.072-.344-.108-.49.109-.145.217-.572.718-.699.863-.127.145-.254.163-.472.055-.217-.11-.91-.342-1.742-1.081-.647-.575-1.096-1.308-1.223-1.525-.127-.217-.014-.335.095-.443.098-.097.23-.23.339-.356.109-.127.14-.218.212-.362.073-.145.037-.272-.018-.38-.054-.109-.472-1.181-.665-1.61-.163-.361-.335-.374-.49-.38Z"
                ></path>
              </g>
            </svg>